<?xml version="1.0" encoding="UTF-8"?>
<svg width="20px" height="12px" viewBox="0 0 20 12" version="1.1" xmlns="http://www.w3.org/2000/svg" xmlns:xlink="http://www.w3.org/1999/xlink">
    <!-- Generator: Sketch 63 (92445) - https://sketch.com -->
    <title>Arrow</title>
    <desc>Created with Sketch.</desc>
    <g id="Page-1" stroke="none" stroke-width="1" fill="none" fill-rule="evenodd">
        <g id="Home-Page" transform="translate(-1185.000000, -1602.000000)">
            <g id="Group" transform="translate(1183.000000, 1594.000000)">
                <g id="Arrow/black" transform="translate(12.000000, 14.000000) rotate(-90.000000) translate(-12.000000, -14.000000) translate(0.000000, 2.000000)">
                    <g id="Arrow-Down-1---24px">
                        <rect id="Rectangle" fill="#000000" fill-rule="nonzero" opacity="0" x="0" y="0" width="24" height="24"></rect>
                        <path d="M17.7,15.196 C18.0939953,15.5829009 18.0998152,16.2159205 17.713,16.61 L12.713,21.7 C12.5250054,21.891168 12.2681179,21.998836 12,21.998836 C11.7318821,21.998836 11.4749946,21.891168 11.287,21.7 L6.28699999,16.61 C5.90990294,16.214628 5.91994499,15.589783 6.30955227,15.2067329 C6.69915955,14.8236828 7.32408503,14.824247 7.713,15.208 L11,18.555 L11,2.99999999 C11,2.44771525 11.4477152,1.99999999 12,1.99999999 C12.5522848,1.99999999 13,2.44771525 13,2.99999999 L13,18.555 L16.287,15.208 C16.6741785,14.8142843 17.3071952,14.8089121 17.701,15.196 L17.7,15.196 Z" id="Path" fill="#333333" fill-rule="nonzero"></path>
                    </g>
                </g>
            </g>
        </g>
    </g>
</svg>